#!OML:ASF F:\VICON\USERDATA\INSTALL\rory3\rory3.ASF
:FULLY-SPECIFIED
:DEGREES
1649
root 1.72197 9.92847 -5.22367 342.799 34.0531 359.713
lowerback 29.2785 0.0765166 -0.778736
upperback 12.9206 0.416829 0.716963
thorax -1.59518 0.356762 1.10425
lowerneck -22.5714 -5.84858 -11.2435
upperneck 9.47445 -5.62697 7.40579
head 7.06168 -2.45817 3.53481
rclavicle -5.81445e-015 -1.22253e-014
rhumerus -6.52709 13.6871 -80.8637
rradius 87.858
rwrist 40.1213
rhand -26.0983 12.3989
rfingers 7.12502
rthumb 0.450808 -377.58
lclavicle -5.81445e-015 -1.22253e-014
lhumerus -5.04966 -4.2927 84.7767
lradius 80.4047
lwrist -26.1865
lhand -30.4738 18.9098
lfingers 7.12502
lthumb -3.77504 48.8561
rfemur -76.5284 -19.579 18.5597
rtibia 103.687
rfoot -4.17003 4.52369
rtoes 10.6821
lfemur -74.901 20.3308 -13.0872
ltibia 103.729
lfoot -7.69846 -17.9992
ltoes -4.23569
1650
root 1.72167 9.93078 -5.22238 342.73 33.9882 359.631
lowerback 29.274 0.0995894 -0.71088
upperback 12.9138 0.463238 0.727272
thorax -1.60204 0.381989 1.06298
lowerneck -22.5159 -5.83883 -11.2925
upperneck 9.53491 -5.61271 7.43079
head 7.07386 -2.45279 3.55366
rclavicle -1.8487e-014 9.14409e-015
rhumerus -6.63531 13.6431 -80.872
rradius 87.8958
rwrist 40.1757
rhand -26.1646 12.3778
rfingers 7.12502
rthumb 0.386811 -377.602
lclavicle -1.8487e-014 9.14409e-015
lhumerus -5.04627 -4.34889 84.782
lradius 80.366
lwrist -26.0239
lhand -30.496 18.8203
lfingers 7.12502
lthumb -3.79643 48.7662
rfemur -76.4723 -19.5097 18.6515
rtibia 103.668
rfoot -4.21874 4.5205
rtoes 10.4855
lfemur -74.8597 20.4144 -12.9752
ltibia 103.727
lfoot -7.67785 -18.0562
ltoes -4.24786
1651
root 1.72067 9.93047 -5.22184 342.674 34.001 359.575
lowerback 29.3131 0.0863596 -0.633736
upperback 12.9075 0.465484 0.70279
thorax -1.62656 0.387494 0.991043
lowerneck -22.516 -5.84014 -11.3049
upperneck 9.58265 -5.61726 7.45708
head 7.0914 -2.4535 3.56398
rclavicle 6.5102e-015 -6.75868e-015
rhumerus -6.70414 13.5822 -80.9162
rradius 87.923
rwrist 40.2375
rhand -26.1744 12.302
rfingers 7.12502
rthumb 0.377344 -377.677
lclavicle 6.5102e-015 -6.75868e-015
lhumerus -5.01476 -4.42567 84.7584
lradius 80.3294
lwrist -25.8199
lhand -30.4706 18.9164
lfingers 7.12502
lthumb -3.77191 48.8628
rfemur -76.4393 -19.5357 18.6958
rtibia 103.663
rfoot -4.20893 4.51719
rtoes 10.3031
lfemur -74.8463 20.4088 -12.925
ltibia 103.73
lfoot -7.71567 -18.0809
ltoes -4.76482
1652
root 1.71804 9.92957 -5.22293 342.601 34.0565 359.457
lowerback 29.3449 0.0511322 -0.565754
upperback 12.9113 0.441195 0.735746
thorax -1.63613 0.37751 0.995282
lowerneck -22.5725 -5.86353 -11.398
upperneck 9.6424 -5.62396 7.50264
head 7.12486 -2.45552 3.59273
rclavicle 4.22914e-014 -1.46107e-014
rhumerus -6.66056 13.5917 -80.8617
rradius 87.8902
rwrist 40.2248
rhand -26.1181 12.2065
rfingers 7.12502
rthumb 0.431649 -377.773
lclavicle 4.22914e-014 -1.46107e-014
lhumerus -5.00463 -4.43952 84.781
lradius 80.319
lwrist -25.6836
lhand -30.6204 18.9122
lfingers 7.12502
lthumb -3.9166 48.856
rfemur -76.4207 -19.5995 18.7879
rtibia 103.656
rfoot -4.21287 4.49356
rtoes 10.4638
lfemur -74.8841 20.3603 -12.8529
ltibia 103.729
lfoot -7.70705 -18.1156
ltoes -4.90912
1653
root 1.71667 9.93042 -5.22417 342.556 34.0492 359.414
lowerback 29.3472 0.0552768 -0.56184
upperback 12.9269 0.449609 0.764299
thorax -1.61985 0.381009 1.02198
lowerneck -22.5954 -5.87639 -11.4787
upperneck 9.69849 -5.62118 7.53017
head 7.14996 -2.45491 3.61508
rclavicle 3.29983e-014 -3.83654e-014
rhumerus -6.62248 13.6226 -80.7893
rradius 87.873
rwrist 40.161
rhand -26.0299 12.3052
rfingers 7.12502
rthumb 0.516863 -377.674
lclavicle 3.29983e-014 -3.83654e-014
lhumerus -5.00716 -4.43915 84.7975
lradius 80.3689
lwrist -25.5594
lhand -30.6018 18.9233
lfingers 7.12502
lthumb -3.89861 48.8674
rfemur -76.3906 -19.5951 18.8209
rtibia 103.644
rfoot -4.22139 4.49947
rtoes 10.7957
lfemur -74.8619 20.3553 -12.7955
ltibia 103.733
lfoot -7.68316 -18.1183
ltoes -4.60394
1654
root 1.71782 9.92894 -5.22229 342.596 34.0515 359.501
lowerback 29.3317 0.0629869 -0.594181
upperback 12.9251 0.448124 0.710975
thorax -1.61464 0.380774 0.982498
lowerneck -22.5064 -5.86171 -11.5101
upperneck 9.66578 -5.61207 7.59531
head 7.12751 -2.44743 3.6442
rclavicle 1.88845e-015 1.2921e-014
rhumerus -6.6573 13.6226 -80.8182
rradius 87.8754
rwrist 40.1317
rhand -26.059 12.3611
rfingers 7.12502
rthumb 0.488771 -377.618
lclavicle 1.88845e-015 1.2921e-014
lhumerus -5.07713 -4.47995 84.7312
lradius 80.4834
lwrist -25.2536
lhand -30.4235 18.861
lfingers 7.12502
lthumb -3.72639 48.8082
rfemur -76.4084 -19.6003 18.742
rtibia 103.659
rfoot -4.23504 4.50926
rtoes 10.878
lfemur -74.8367 20.3395 -12.8489
ltibia 103.741
lfoot -7.6904 -18.0898
ltoes -4.5928
1655
root 1.71785 9.92498 -5.22109 342.604 34.0888 359.475
lowerback 29.3193 0.0439287 -0.553593
upperback 12.9199 0.433626 0.692275
thorax -1.61443 0.375954 0.942983
lowerneck -22.5017 -5.86345 -11.5199
upperneck 9.68533 -5.61808 7.62625
head 7.13522 -2.44815 3.65551
rclavicle -4.62174e-015 -1.96797e-014
rhumerus -6.64511 13.6291 -80.7965
rradius 87.8556
rwrist 40.0648
rhand -25.9978 12.3391
rfingers 7.12502
rthumb 0.54789 -377.64
lclavicle -4.62174e-015 -1.96797e-014
lhumerus -5.11683 -4.49596 84.6987
lradius 80.5704
lwrist -25.0197
lhand -30.2913 18.8711
lfingers 7.12502
lthumb -3.59875 48.8204
rfemur -76.4501 -19.6522 18.7601
rtibia 103.676
rfoot -4.19441 4.51927
rtoes 10.9712
lfemur -74.909 20.2994 -12.8582
ltibia 103.748
lfoot -7.64821 -18.0893
ltoes -4.56043
1656
root 1.71571 9.92546 -5.2216 342.522 34.1028 359.376
lowerback 29.3277 0.0313041 -0.518
upperback 12.9537 0.430754 0.733248
thorax -1.58003 0.375065 0.968557
lowerneck -22.5649 -5.8669 -11.5022
upperneck 9.6926 -5.60582 7.5368
head 7.14263 -2.4485 3.62346
rclavicle -3.43401e-014 4.94974e-014
rhumerus -6.59254 13.632 -80.7351
rradius 87.8356
rwrist 40.0969
rhand -26.0588 12.3604
rfingers 7.12502
rthumb 0.488927 -377.619
lclavicle -3.43401e-014 4.94974e-014
lhumerus -5.04923 -4.41312 84.7753
lradius 80.5518
lwrist -24.9358
lhand -30.3486 19.0069
lfingers 7.12502
lthumb -3.65408 48.9553
rfemur -76.3907 -19.676 18.832
rtibia 103.658
rfoot -4.19453 4.51093
rtoes 11.0822
lfemur -74.8961 20.2858 -12.7802
ltibia 103.731
lfoot -7.64641 -18.113
ltoes -4.59339
1657
root 1.71348 9.92758 -5.22155 342.444 34.0903 359.285
lowerback 29.3126 0.0370963 -0.504872
upperback 12.9825 0.445069 0.782686
thorax -1.54107 0.381156 1.01129
lowerneck -22.5902 -5.86276 -11.4869
upperneck 9.6995 -5.58535 7.43547
head 7.1428 -2.44699 3.58929
rclavicle -3.98563e-014 7.15625e-015
rhumerus -6.56427 13.6486 -80.6751
rradius 87.8346
rwrist 40.1472
rhand -26.117 12.3683
rfingers 7.12502
rthumb 0.432767 -377.611
lclavicle -3.98563e-014 7.15625e-015
lhumerus -4.99794 -4.32333 84.8473
lradius 80.5418
lwrist -24.8694
lhand -30.4317 19.1714
lfingers 7.12502
lthumb -3.73436 49.1184
rfemur -76.3541 -19.6577 18.9157
rtibia 103.637
rfoot -4.20687 4.46305
rtoes 11.0897
lfemur -74.8603 20.2992 -12.679
ltibia 103.721
lfoot -7.6506 -18.134
ltoes -4.63587
1658
root 1.7104 9.93128 -5.22079 342.289 34.1042 359.161
lowerback 29.3927 0.0277252 -0.461231
upperback 13.0013 0.448569 0.824145
thorax -1.55596 0.384051 1.0306
lowerneck -22.6826 -5.88133 -11.4551
upperneck 9.80778 -5.59648 7.33213
head 7.18965 -2.45979 3.54701
rclavicle -4.03036e-014 3.8763e-015
rhumerus -6.54514 13.6508 -80.6347
rradius 87.8377
rwrist 40.1042
rhand -26.0168 12.3223
rfingers 7.12502
rthumb 0.529519 -377.657
lclavicle -4.03036e-014 3.8763e-015
lhumerus -5.04109 -4.24552 84.8778
lradius 80.5869
lwrist -24.8287
lhand -30.389 19.0015
lfingers 7.12502
lthumb -3.69312 48.9493
rfemur -76.216 -19.6681 18.9904
rtibia 103.604
rfoot -4.24449 4.44448
rtoes 11.1656
lfemur -74.7596 20.2882 -12.5217
ltibia 103.711
lfoot -7.60043 -18.1969
ltoes -4.41135
1659
root 1.70678 9.93407 -5.22021 342.151 34.1312 359.079
lowerback 29.5014 0.024094 -0.4306
upperback 13.0129 0.455615 0.851958
thorax -1.59171 0.388862 1.04122
lowerneck -22.7589 -5.90883 -11.5647
upperneck 9.89393 -5.60233 7.37983
head 7.2355 -2.46182 3.57909
rclavicle -1.11319e-014 -1.88845e-014
rhumerus -6.57553 13.6286 -80.5998
rradius 87.8632
rwrist 40.058
rhand -25.8952 12.2464
rfingers 7.12502
rthumb 0.646926 -377.732
lclavicle -1.11319e-014 -1.88845e-014
lhumerus -5.07364 -4.24428 84.9033
lradius 80.6186
lwrist -24.7172
lhand -30.3663 18.9024
lfingers 7.12502
lthumb -3.67115 48.8505
rfemur -76.0555 -19.6844 19.0163
rtibia 103.58
rfoot -4.29523 4.43349
rtoes 11.2357
lfemur -74.6351 20.2618 -12.4026
ltibia 103.688
lfoot -7.54968 -18.263
ltoes -4.22183
1660
root 1.7053 9.93675 -5.22017 342.135 34.1238 359.119
lowerback 29.5033 0.0378693 -0.473945
upperback 13.0365 0.461628 0.82844
thorax -1.56581 0.391176 1.03864
lowerneck -22.6894 -5.89463 -11.597
upperneck 9.80652 -5.58111 7.39863
head 7.19509 -2.45175 3.59402
rclavicle -6.95746e-016 1.55052e-014
rhumerus -6.55171 13.6605 -80.5858
rradius 87.8134
rwrist 40.0549
rhand -25.9939 12.1508
rfingers 7.12502
rthumb 0.551609 -377.828
lclavicle -6.95746e-016 1.55052e-014
lhumerus -5.0689 -4.25073 84.8889
lradius 80.6393
lwrist -24.5478
lhand -30.5079 18.9713
lfingers 7.12502
lthumb -3.80792 48.917
rfemur -75.9853 -19.6835 18.9911
rtibia 103.576
rfoot -4.33085 4.42448
rtoes 10.979
lfemur -74.5525 20.274 -12.4259
ltibia 103.665
lfoot -7.60458 -18.2491
ltoes -4.43883
1661
root 1.70642 9.93668 -5.21768 342.11 34.0477 359.083
lowerback 29.4772 0.0473839 -0.462769
upperback 13.0502 0.475181 0.813754
thorax -1.53873 0.398482 1.01229
lowerneck -22.6035 -5.86306 -11.5923
upperneck 9.72544 -5.55025 7.41802
head 7.15232 -2.43598 3.60481
rclavicle 6.4605e-015 -8.94531e-016
rhumerus -6.5274 13.6987 -80.6203
rradius 87.7386
rwrist 40.0713
rhand -26.1272 12.2123
rfingers 7.12502
rthumb 0.4229 -377.767
lclavicle 6.4605e-015 -8.94531e-016
lhumerus -5.08978 -4.24373 84.8176
lradius 80.6747
lwrist -24.2918
lhand -30.5707 18.9322
lfingers 7.12502
lthumb -3.8686 48.8768
rfemur -75.9848 -19.6872 19.1084
rtibia 103.589
rfoot -4.32577 4.44428
rtoes 10.8057
lfemur -74.5482 20.382 -12.3607
ltibia 103.694
lfoot -7.63609 -18.2632
ltoes -4.4085
1662
root 1.70952 9.93046 -5.2132 342.092 34.0352 359.043
lowerback 29.4799 0.0450232 -0.448634
upperback 13.0404 0.475402 0.816693
thorax -1.55102 0.398856 1.00727
lowerneck -22.49 -5.83476 -11.6153
upperneck 9.61349 -5.51773 7.4394
head 7.09569 -2.42057 3.62103
rclavicle 5.41191e-014 3.08116e-015
rhumerus -6.52509 13.7051 -80.6483
rradius 87.6678
rwrist 40.1267
rhand -26.2102 12.2794
rfingers 7.12502
rthumb 0.342686 -377.7
lclavicle 5.41191e-014 3.08116e-015
lhumerus -5.13018 -4.24607 84.7796
lradius 80.7086
lwrist -24.142
lhand -30.4771 18.9143
lfingers 7.12502
lthumb -3.77818 48.8605
rfemur -76.0707 -19.8249 19.2177
rtibia 103.637
rfoot -4.29485 4.55381
rtoes 10.672
lfemur -74.617 20.425 -12.3185
ltibia 103.758
lfoot -7.63474 -18.3201
ltoes -4.33011
